<svg xmlns="http://www.w3.org/2000/svg" viewBox="0 0 150.85 242.75"><defs><style>.cls-1{fill:#c59483;}</style></defs><g id="Camada_2" data-name="Camada 2"><g id="Layer_1" data-name="Layer 1"><polygon class="cls-1" points="88.73 203.21 0 203.21 0 29.54 7 29.54 7 196.21 88.73 196.21 88.73 203.21"/><path class="cls-1" d="M119.22,109.39C105.39,99.77,87.72,93.23,68,90.21c21.78-7.36,37-23.89,37-43.06C105,21.91,78.63,1.25,45.62.06V0h-6V168.61h6V94.35c27.45.48,52.28,7.51,70.17,20,19,13.23,29.06,31.37,29.06,52.47,0,41.2-42.31,70-102.88,70H39v6h3c32.35,0,59.91-7.66,79.71-22.14,18.81-13.76,29.17-32.87,29.17-53.83C150.85,144,139.62,123.58,119.22,109.39ZM45.62,6.06c13.92.54,27,4.86,37,12.28C93.2,26.14,99,36.38,99,47.15S93.2,68.16,82.65,76c-10.05,7.43-23.11,11.74-37,12.29Z"/></g></g></svg>